<?xml version="1.0" encoding="utf-8"?>
<!-- Generator: Adobe Illustrator 16.0.0, SVG Export Plug-In . SVG Version: 6.00 Build 0)  -->
<!DOCTYPE svg PUBLIC "-//W3C//DTD SVG 1.1//EN" "http://www.w3.org/Graphics/SVG/1.1/DTD/svg11.dtd">
<svg version="1.1" xmlns="http://www.w3.org/2000/svg" xmlns:xlink="http://www.w3.org/1999/xlink" x="0px" y="0px" width="300px"
	 height="300px" viewBox="0 0 300 300" enable-background="new 0 0 300 300" xml:space="preserve">
<g id="Layer_1">
	<circle fill="#D1D1D1" stroke="#FFFFFF" stroke-width="9" stroke-miterlimit="10" cx="150" cy="149.83" r="143.705"/>
</g>
<g id="Layer_2">
	<path fill="#F9B5A4" d="M70.013,116.467c0-9.571,1.307-97.367,76.646-97.367c0,0,79.695,3.744,79.259,93.621
		c0,98.616-24.821,140.643-36.581,153.126c-11.758,12.482-23.082,17.891-38.759,17.891C134.9,283.737,70.013,271.254,70.013,116.467
		z"/>
	<ellipse fill="#231F20" cx="135.689" cy="213.233" rx="8.138" ry="5.781"/>
	<ellipse fill="#231F20" cx="160.894" cy="213.233" rx="8.139" ry="5.781"/>
	<path fill="#C56857" d="M169.279,196.37c-11.297-10.942-9.99-52.095-20.225-52.095c-0.225,0-0.439,0.035-0.647,0.085
		c-0.206-0.051-0.417-0.085-0.643-0.085c-10.234,0-8.927,41.152-20.222,52.095h-0.017c0,0-10.865,17.144,1.737,20.41
		c0,0-0.518-6.688,4.513-7.978c0.404-0.09,0.831-0.153,1.289-0.185c0,0,7.458,0.763,7.458,4.899l0.001,0.003
		c-0.022,0.821,1.598,3.29,4.402,3.719c0.264,0.052,0.536,0.089,0.822,0.089h0h1.305h0.001c0.286,0,0.558-0.037,0.822-0.089
		c2.801-0.429,4.423-2.896,4.403-3.717l0.002-0.005c0-4.137,7.456-4.899,7.456-4.899c0.459,0.031,0.885,0.095,1.29,0.185
		c5.029,1.289,4.311,7.962,4.311,7.962C179.94,213.498,169.279,196.37,169.279,196.37z"/>
</g>
<g id="Layer_5">
	<path fill="#FFFFFF" d="M123.532,151.086c0,0-2.786-10.898-14.286-10.898s-16.585,9.477-16.585,10.188s7.72,6.906,14.465,6.906
		s15.048-1.07,16.521-5.863"/>
	<path fill="#FFFFFF" d="M169.776,151.086c0,0,2.786-10.898,14.286-10.898s16.585,9.477,16.585,10.188s-7.72,6.906-14.465,6.906
		s-15.048-1.07-16.521-5.863"/>
	<g>
		<path fill="#231F20" d="M167.751,150.46c0,0,11.789-25.998,33.689-1.089c0,0,0.381,1.199,0,2.587c0,0-8.687-10.208-17.366-10.208
			s-11.758,4.655-13.392,10.698C169.703,155.552,165.88,152.476,167.751,150.46z"/>
		<path fill="none" stroke="#231F20" stroke-miterlimit="10" d="M200.647,151.086c0,0-16.981,13.367-31.353,1.689"/>
	</g>
	<g>
		<path fill="#231F20" d="M125.401,150.075c0,0-11.789-25.996-33.688-1.087c0,0-0.381,1.197,0,2.585c0,0,8.686-10.208,17.366-10.208
			c8.679,0,11.758,4.654,13.391,10.697C123.449,155.166,127.271,152.091,125.401,150.075z"/>
		<path fill="none" stroke="#231F20" stroke-miterlimit="10" d="M92.504,150.703c0,0,16.982,13.364,31.354,1.686"/>
	</g>
</g>
<g id="Layer_3">
	<path fill="#231F20" d="M224.327,153.9c1.798-8.963,3.985-50.838-1.653-70.64c-6.682-28.522-24.855-68.79-74.267-68.79
		c-0.134,0-0.263,0.007-0.397,0.007s-0.263-0.007-0.397-0.007c-49.373,0-67.558,40.207-74.25,68.725
		c-4.248,17.849-3.364,61.367-2.277,66.146c0,0,2.338-49.206,10.154-68.236c2.722-6.614,22.815-19.083,27.949-25.434
		c0.097-0.121,0.199-0.217,0.297-0.33c0.177,0.11,0.354,0.208,0.532,0.33c0,0,20.743,6.911,36.11,7.573
		c0.127,0.01,0.254,0.01,0.383,0.017c0.182,0.006,0.365,0.015,0.545,0.019c0.185,0.005,0.37,0.021,0.557,0.021
		c0.13,0,0.266-0.005,0.397-0.006c0.13,0.001,0.267,0.006,0.397,0.006c0.187,0,0.372-0.015,0.557-0.021
		c0.179-0.004,0.364-0.013,0.545-0.019c0.128-0.008,0.255-0.007,0.382-0.017c15.368-0.662,36.11-7.573,36.11-7.573
		c0.178-0.122,0.354-0.22,0.532-0.33c0.097,0.113,0.199,0.209,0.296,0.33c5.134,6.35,22.92,15.514,27.948,25.434
		C222.596,100.136,224.327,153.9,224.327,153.9z"/>
	<path fill="#231F20" d="M170.965,125.364c0,0-4.693,2.966-2.945,8.461c1.747,5.494,34.802-2.362,34.802-2.362
		s4.578-2.077,4.019-3.106c-0.561-1.029-9.278-6.138-9.278-6.138s-23.448,1.682-25.731,3.043"/>
	<path fill="#231F20" d="M124.52,124.925c0,0,4.772,2.837,3.175,8.377c-1.596,5.54-34.854-1.412-34.854-1.412
		s-4.631-1.951-4.1-2.995c0.531-1.044,9.106-6.39,9.106-6.39s23.485,1.042,25.805,2.34"/>
</g>
<g id="Layer_4">
	<path fill="#C56857" d="M116.814,239.541c0,0,11.473,2.736,15.474-0.285c4.001-3.022,6.206-6.615,9.717-6.615
		c3.51,0,3.647,1.715,7.703,1.715h0.225c4.057,0,4.193-1.715,7.705-1.715c3.51,0,5.716,3.593,9.716,6.615
		c4.001,3.021,14.289,0.734,14.289,0.734s-7.793,4.654-24.204,0.408c0,0-2.941-1.307-7.797-1.307c-4.859,0-7.309,2.123-17.843,3.593
		C121.265,244.155,120.367,239.541,116.814,239.541z"/>
	<path fill="#C56857" d="M163.454,242.869c-10.206-3.351-13.485-2.082-13.485-2.082s-0.052,0.058-0.136,0.158
		c-0.086-0.101-0.137-0.158-0.137-0.158s-3.278-1.269-13.485,2.082c-2.196,0.822-0.696,5.053,5.955,4.2
		c6.641-0.851,3.013-1.443,7.666-1.443c4.655,0,1.027,0.593,7.667,1.443C164.15,247.922,165.65,243.691,163.454,242.869z"/>
	<path fill="#FFBE95" d="M217.307,200.392c0,0,12.341,7.124,20.692-22.08c8.35-29.208-9.837-37.927-13.937-23.58"/>
	<path fill="#FFBE95" d="M79.252,198.75c0,0-12.379,7.058-20.572-22.192c-8.194-29.25,10.04-37.872,14.063-23.504"/>
</g>
<g id="Layer_6">
	<g>
		<g>
			<path fill="#202830" d="M138.068,146.667c-3.379-2.564-11.365-11.184-28.491-11.184c-17.126,0-25.645,5.475-28.791,7.805
				c-3.145,2.33-8.048,4.311-8.048,4.311L72,151.065v2.474c0,0,2.481,2.681,4.579,4.66c2.097,1.979,3.598,18.641,17.111,26.097
				s24.714,2.329,33.219-2.913s13.451-23.649,13.451-23.649S141.446,149.229,138.068,146.667z M133.357,168.685
				c-1.631,2.913-8.621,19.224-28.542,16.077c-18.058-4.545-22.135-16.31-23.416-27.028c0,0-1.98-7.222,5.591-12.931
				c0,0,7.223-7.457,20.971-6.175c13.747,1.282,24.582,6.69,26.329,14.296C136.037,160.53,134.988,165.771,133.357,168.685z"/>
			<path fill="#9B5C00" d="M74,150.045v2.795c0,0-6.145,0.468-6.378-0.815c-0.232-1.28-0.713-3.028,2.316-2.796
				C72.966,149.463,74,150.045,74,150.045z"/>
		</g>
		<g>
			<path fill="#202830" d="M156.434,157.733c0,0,4.992,18.407,13.497,23.649s19.798,10.369,33.312,2.913
				s14.956-24.117,17.054-26.097c2.097-1.979,4.704-4.66,4.704-4.66v-2.474l-0.864-3.467c0,0-5.15-1.981-8.297-4.311
				c-3.146-2.33-11.603-7.805-28.729-7.805c-17.123,0-25.082,8.62-28.459,11.184C155.271,149.229,156.434,157.733,156.434,157.733z
				 M162.459,152.924c1.747-7.606,12.581-13.015,26.329-14.296c13.747-1.282,20.969,6.175,20.969,6.175
				c7.573,5.709,5.593,12.931,5.593,12.931c-1.281,10.719-5.359,22.483-23.417,27.028c-19.921,3.146-26.911-13.164-28.542-16.077
				S160.711,160.53,162.459,152.924z"/>
			<path fill="#9B5C00" d="M222,150.045v2.795c0,0,6.52,0.468,6.752-0.815c0.232-1.28,0.525-3.028-2.504-2.796
				C223.22,149.463,222,150.045,222,150.045z"/>
		</g>
		<g>
			<path fill="#9B5C00" d="M138.6,150.395c-2.097-0.35-2.214,3.262-0.933,3.961c1.398,0.816,2.797-1.164,3.729-1.747
				c2.795-1.748,7.106-1.515,10.135-0.699c1.515,0.467,3.378,1.864,5.009,1.516c1.515-0.35,2.563-2.564,1.399-4.078
				c-1.748-2.097-7.457-1.165-9.903-1.165c-1.864,0-13.165-0.466-10.136,4.077"/>
		</g>
	</g>
</g>
</svg>
